<?xml version="1.0" encoding="UTF-8"?>
<!DOCTYPE svg PUBLIC "-//W3C//DTD SVG 1.1//EN" "http://www.w3.org/Graphics/SVG/1.1/DTD/svg11.dtd">
<!-- Creator: CorelDRAW -->
<svg xmlns="http://www.w3.org/2000/svg" xml:space="preserve" width="2.1764mm" height="2.4245mm" version="1.1" style="shape-rendering:geometricPrecision; text-rendering:geometricPrecision; image-rendering:optimizeQuality; fill-rule:evenodd; clip-rule:evenodd"
viewBox="0 0 4.47 4.98"
 xmlns:xlink="http://www.w3.org/1999/xlink"
 xmlns:xodm="http://www.corel.com/coreldraw/odm/2003">
 <defs>
  <style type="text/css">
   <![CDATA[
    .fil0 {fill:#F89933}
   ]]>
  </style>
 </defs>
 <g id="Capa_x0020_1">
  <metadata id="CorelCorpID_0Corel-Layer"/>
  <path class="fil0" d="M2.9 1.07c-0.02,0.01 -0.03,0.02 -0.05,0.03 -0.08,0.05 -0.16,0.09 -0.24,0.14 -0.02,0.01 -0.03,0.02 -0.05,0.03l-0.05 0.03c-0.06,0.04 -0.13,0.07 -0.19,0.11 -0.01,0 -0.02,0.01 -0.02,0.01l-0.17 0.1c-0.16,0.09 -0.31,0.18 -0.47,0.27l-0.05 0.03c-0.02,0.01 -0.03,0.02 -0.05,0.03 -0.01,0 -0.01,0.01 -0.02,0.01 -0.02,0.01 -0.15,0.09 -0.17,0.09 -0.01,-0.01 -0.06,-0.06 -0.08,-0.07 -0.09,-0.07 -0.19,-0.12 -0.31,-0.15 -0.33,-0.08 -0.67,0.05 -0.86,0.31 -0.15,0.21 -0.19,0.48 -0.11,0.72 0.03,0.1 0.09,0.19 0.15,0.27 0.02,0.02 0.04,0.04 0.06,0.06 0.03,0.02 0.05,0.05 0.08,0.07 0.01,0.01 0.02,0.01 0.03,0.02 0.01,0.01 0.02,0.01 0.03,0.02 0.01,0 0.01,0.01 0.02,0.01l0.05 0.03c0.05,0.02 0.1,0.04 0.15,0.05 0.13,0.03 0.24,0.03 0.37,0 0.11,-0.02 0.23,-0.09 0.32,-0.16l0.04 -0.03c0.01,-0 0.01,-0.01 0.01,-0.01l0.09 0.05c0.02,0.01 0.03,0.02 0.05,0.03l0.12 0.07c0.01,0 0.01,0.01 0.02,0.01l0.62 0.36c0.02,0.01 0.03,0.02 0.05,0.03 0.01,0 0.02,0.01 0.02,0.01l0.05 0.03c0.01,0 0.02,0.01 0.02,0.01l0.19 0.11c0.01,0.01 0.29,0.16 0.29,0.17 0,0.01 -0,0.01 -0,0.02l-0.01 0.07c-0.03,0.18 0,0.36 0.08,0.51 0.01,0.03 0.03,0.06 0.05,0.08 0.01,0.02 0.03,0.04 0.05,0.06 0.02,0.02 0.05,0.05 0.07,0.07 0.01,0.01 0.01,0.01 0.01,0.01 0.01,0.01 0.01,0.01 0.01,0.01 0.05,0.05 0.16,0.11 0.22,0.13l0.08 0.03c0.03,0.01 0.06,0.01 0.09,0.02 0.14,0.02 0.27,0 0.38,-0.03 0.03,-0.01 0.06,-0.02 0.1,-0.04 0.01,-0 0.01,-0.01 0.02,-0.01 0.01,-0.01 0.02,-0.01 0.03,-0.02 0.04,-0.02 0.08,-0.05 0.11,-0.08 0.02,-0.02 0.05,-0.04 0.07,-0.07 0,-0.01 0.01,-0.01 0.01,-0.01l0.02 -0.03c0.04,-0.05 0.07,-0.09 0.1,-0.15 0.08,-0.17 0.11,-0.36 0.06,-0.55 -0.01,-0.03 -0.01,-0.05 -0.02,-0.08 -0.01,-0.03 -0.02,-0.06 -0.04,-0.09 -0.02,-0.04 -0.04,-0.07 -0.06,-0.11 -0.03,-0.04 -0.05,-0.06 -0.07,-0.08 -0.02,-0.03 -0.1,-0.09 -0.13,-0.12 -0.14,-0.1 -0.29,-0.14 -0.46,-0.14 -0.15,0 -0.27,0.04 -0.36,0.09 -0.07,0.04 -0.14,0.09 -0.2,0.14 -0.02,0.02 -0.04,0.04 -0.05,0.06 -0.01,-0 -0.12,-0.07 -0.14,-0.08 -0.02,-0.01 -0.03,-0.02 -0.05,-0.03l-0.19 -0.11c-0.02,-0.01 -0.03,-0.02 -0.05,-0.03l-0.09 -0.05c-0.01,-0 -0.02,-0.01 -0.02,-0.01l-0.07 -0.04c-0.01,-0 -0.02,-0.01 -0.02,-0.01 -0.1,-0.06 -0.21,-0.12 -0.3,-0.18l-0.37 -0.22c-0.02,-0.01 -0.03,-0.02 -0.05,-0.03l-0.12 -0.07c-0.01,-0 -0.02,-0.01 -0.02,-0.01l0.04 -0.13c0,-0.01 0.01,-0.08 0.02,-0.1 0.01,-0.08 0,-0.18 -0.01,-0.26 -0.01,-0.03 -0.01,-0.02 -0.01,-0.05 -0,-0.02 -0.02,-0.05 -0.02,-0.06 0.01,-0 0.03,-0.02 0.05,-0.03l0.26 -0.15c0.01,-0 0.01,-0.01 0.02,-0.01l0.07 -0.04c0.01,-0 0.01,-0.01 0.02,-0.01 0.09,-0.05 0.17,-0.1 0.26,-0.15 0.07,-0.04 0.14,-0.08 0.21,-0.12l0.38 -0.22c0.02,-0.01 0.03,-0.02 0.05,-0.03l0.09 -0.05c0.02,-0.01 0.03,-0.02 0.05,-0.03 0.01,-0.01 0.03,-0.02 0.05,-0.03 0.01,0.02 0.04,0.04 0.05,0.05 0.02,0.01 0.04,0.03 0.06,0.05 0.04,0.03 0.08,0.06 0.13,0.08 0.09,0.05 0.22,0.08 0.33,0.08 0.08,0 0.16,-0 0.23,-0.02 0.08,-0.03 0.16,-0.06 0.24,-0.1 0.06,-0.04 0.09,-0.07 0.14,-0.12 0,-0 0,-0 0,-0l0 -0c0,-0 0,-0 0,-0 0,-0 0.01,-0.01 0.01,-0.01 0,-0.01 0.01,-0.01 0.01,-0.01 0.01,-0.01 0.01,-0.01 0.01,-0.01 0.03,-0.04 0.06,-0.07 0.08,-0.11 0.01,-0.02 0.02,-0.04 0.03,-0.07 0,-0.01 0,-0.01 0.01,-0.02l0.02 -0.05c0.06,-0.17 0.06,-0.36 0,-0.52 -0.03,-0.09 -0.08,-0.18 -0.14,-0.25l-0.02 -0.03c-0.03,-0.03 -0.09,-0.09 -0.13,-0.12 -0.08,-0.06 -0.17,-0.1 -0.27,-0.12 -0.1,-0.02 -0.21,-0.03 -0.32,-0.01 -0.04,0.01 -0.06,0.01 -0.1,0.02 -0.05,0.01 -0.09,0.03 -0.13,0.05 -0.01,0.01 -0.03,0.01 -0.04,0.02 -0.01,0 -0.01,0.01 -0.02,0.01 -0.01,0 -0.01,0.01 -0.02,0.01 -0.05,0.03 -0.1,0.07 -0.15,0.12l-0.04 0.05c-0.08,0.1 -0.14,0.21 -0.17,0.36 -0.01,0.04 -0.01,0.09 -0.01,0.13 -0,0.01 -0,0.02 -0,0.03 0,0.02 0,0.04 0,0.06l0.01 0.05c0.01,0.04 0.01,0.07 0.02,0.1 0,0.02 0.01,0.03 0.01,0.05z"/>
 </g>
</svg>
