<?xml version="1.0" encoding="UTF-8"?>
<!DOCTYPE svg PUBLIC "-//W3C//DTD SVG 1.1//EN" "http://www.w3.org/Graphics/SVG/1.1/DTD/svg11.dtd">
<!-- Creator: CorelDRAW -->
<svg xmlns="http://www.w3.org/2000/svg" xml:space="preserve" width="1.9239mm" height="1.7893mm" version="1.1" style="shape-rendering:geometricPrecision; text-rendering:geometricPrecision; image-rendering:optimizeQuality; fill-rule:evenodd; clip-rule:evenodd"
viewBox="0 0 7.71 7.17"
 xmlns:xlink="http://www.w3.org/1999/xlink"
 xmlns:xodm="http://www.corel.com/coreldraw/odm/2003">
 <defs>
  <style type="text/css">
   <![CDATA[
    .fil2 {fill:none}
    .fil1 {fill:#96989A}
    .fil0 {fill:#F89933}
   ]]>
  </style>
   <clipPath id="id0">
    <path d="M4.2 1.44c-0.09,-0.15 -0.17,-0.3 -0.27,-0.44 -0.3,-0.43 -0.62,-0.74 -1.18,-0.91 -1.18,-0.34 -2.27,0.28 -2.62,1.41 -0.63,2.05 1.32,3.65 1.99,5.4 0.05,0.12 0.12,0.22 0.25,0.25 0.2,0.05 0.27,-0.02 0.39,-0.09 1,-0.57 2.29,-0.89 3.15,-1.37 0.53,-0.3 1.03,-0.61 1.36,-1.15 0.85,-1.4 0.36,-2.58 -0.5,-3.14 -0.88,-0.58 -2.15,-0.51 -2.57,0.04zm-1.41 4.45c0.88,-0.41 1.82,-0.65 2.63,-1.1 0.36,-0.2 0.76,-0.43 0.98,-0.78 0.36,-0.6 0.47,-1.31 -0.18,-1.74 -0.86,-0.56 -1.62,0.02 -2.43,0.39 -0.32,-0.48 -0.75,-1.41 -1.31,-1.57 -0.61,-0.18 -1.16,0.11 -1.35,0.72 -0.22,0.72 0.07,1.39 0.42,2.01 0.4,0.71 0.88,1.36 1.25,2.08z"/>
   </clipPath>
 </defs>
 <g id="Capa_x0020_1">
  <metadata id="CorelCorpID_0Corel-Layer"/>
  <path class="fil0" d="M4.2 1.44c-0.09,-0.15 -0.17,-0.3 -0.27,-0.44 -0.3,-0.43 -0.62,-0.74 -1.18,-0.91 -1.18,-0.34 -2.27,0.28 -2.62,1.41 -0.63,2.05 1.32,3.65 1.99,5.4 0.05,0.12 0.12,0.22 0.25,0.25 0.2,0.05 0.27,-0.02 0.39,-0.09 1,-0.57 2.29,-0.89 3.15,-1.37 0.53,-0.3 1.03,-0.61 1.36,-1.15 0.85,-1.4 0.36,-2.58 -0.5,-3.14 -0.88,-0.58 -2.15,-0.51 -2.57,0.04zm-1.41 4.45c0.88,-0.41 1.82,-0.65 2.63,-1.1 0.36,-0.2 0.76,-0.43 0.98,-0.78 0.36,-0.6 0.47,-1.31 -0.18,-1.74 -0.86,-0.56 -1.62,0.02 -2.43,0.39 -0.32,-0.48 -0.75,-1.41 -1.31,-1.57 -0.61,-0.18 -1.16,0.11 -1.35,0.72 -0.22,0.72 0.07,1.39 0.42,2.01 0.4,0.71 0.88,1.36 1.25,2.08z"/>
  <g style="clip-path:url(#id0)">
   <g id="_2594524439200">
    <polygon id="_1" class="fil1" points="2.23,7.66 8.05,7.27 8.05,0.81 4.37,0.85 "/>
   </g>
  </g>
  <path class="fil2" d="M4.2 1.44c-0.09,-0.15 -0.17,-0.3 -0.27,-0.44 -0.3,-0.43 -0.62,-0.74 -1.18,-0.91 -1.18,-0.34 -2.27,0.28 -2.62,1.41 -0.63,2.05 1.32,3.65 1.99,5.4 0.05,0.12 0.12,0.22 0.25,0.25 0.2,0.05 0.27,-0.02 0.39,-0.09 1,-0.57 2.29,-0.89 3.15,-1.37 0.53,-0.3 1.03,-0.61 1.36,-1.15 0.85,-1.4 0.36,-2.58 -0.5,-3.14 -0.88,-0.58 -2.15,-0.51 -2.57,0.04zm-1.41 4.45c0.88,-0.41 1.82,-0.65 2.63,-1.1 0.36,-0.2 0.76,-0.43 0.98,-0.78 0.36,-0.6 0.47,-1.31 -0.18,-1.74 -0.86,-0.56 -1.62,0.02 -2.43,0.39 -0.32,-0.48 -0.75,-1.41 -1.31,-1.57 -0.61,-0.18 -1.16,0.11 -1.35,0.72 -0.22,0.72 0.07,1.39 0.42,2.01 0.4,0.71 0.88,1.36 1.25,2.08z"/>
 </g>
</svg>
