<?xml version="1.0" encoding="UTF-8"?>
<!DOCTYPE svg PUBLIC "-//W3C//DTD SVG 1.1//EN" "http://www.w3.org/Graphics/SVG/1.1/DTD/svg11.dtd">
<!-- Creator: CorelDRAW -->
<svg xmlns="http://www.w3.org/2000/svg" xml:space="preserve" width="2.2459mm" height="2.227mm" version="1.1" style="shape-rendering:geometricPrecision; text-rendering:geometricPrecision; image-rendering:optimizeQuality; fill-rule:evenodd; clip-rule:evenodd"
viewBox="0 0 5.58 5.53"
 xmlns:xlink="http://www.w3.org/1999/xlink"
 xmlns:xodm="http://www.corel.com/coreldraw/odm/2003">
 <defs>
  <style type="text/css">
   <![CDATA[
    .fil0 {fill:#F89933;fill-rule:nonzero}
   ]]>
  </style>
 </defs>
 <g id="Capa_x0020_1">
  <metadata id="CorelCorpID_0Corel-Layer"/>
  <path class="fil0" d="M1.67 0.52c-0.63,0 -1.15,0.51 -1.15,1.14l0 2.21c0,0.63 0.52,1.14 1.15,1.14l0.57 0 0 -1.91 -0.39 0c-0.03,0 -0.04,-0.02 -0.04,-0.04 0,-0.14 -0.01,-0.53 0.01,-0.64l0.27 -0.01c0.07,0 0.14,0.03 0.15,-0.02 0.05,-0.15 -0.14,-0.77 0.25,-1.08 0.16,-0.13 0.31,-0.18 0.59,-0.18 0.08,0 0.1,-0.01 0.18,-0.01l0.57 0c0.02,0.09 0.02,0.61 0,0.7 -0.74,0 -0.67,-0.07 -0.67,0.59l0.65 0c0.04,0 0.04,0.03 0.03,0.08l-0.04 0.28c-0.01,0.05 -0.02,0.12 -0.03,0.19 -0.03,0.2 0.08,0.15 -0.62,0.15l0 1.91 0.74 0c0.63,0 1.15,-0.51 1.15,-1.14l0 -2.21c0,-0.63 -0.52,-1.14 -1.15,-1.14l-2.23 0zm2.23 5.01l-2.23 0c-0.92,0 -1.67,-0.75 -1.67,-1.66l0 -2.21c0,-0.92 0.75,-1.66 1.67,-1.66l2.23 0c0.92,0 1.68,0.75 1.68,1.66l0 2.21c0,0.92 -0.75,1.66 -1.68,1.66z"/>
 </g>
</svg>
