<?xml version="1.0" encoding="UTF-8"?>
<!DOCTYPE svg PUBLIC "-//W3C//DTD SVG 1.1//EN" "http://www.w3.org/Graphics/SVG/1.1/DTD/svg11.dtd">
<!-- Creator: CorelDRAW -->
<svg xmlns="http://www.w3.org/2000/svg" xml:space="preserve" width="2.2459mm" height="2.227mm" version="1.1" style="shape-rendering:geometricPrecision; text-rendering:geometricPrecision; image-rendering:optimizeQuality; fill-rule:evenodd; clip-rule:evenodd"
viewBox="0 0 5.97 5.92"
 xmlns:xlink="http://www.w3.org/1999/xlink"
 xmlns:xodm="http://www.corel.com/coreldraw/odm/2003">
 <defs>
  <style type="text/css">
   <![CDATA[
    .fil0 {fill:#F89933;fill-rule:nonzero}
   ]]>
  </style>
 </defs>
 <g id="Capa_x0020_1">
  <metadata id="CorelCorpID_0Corel-Layer"/>
  <path class="fil0" d="M1.79 0.56c-0.68,0 -1.23,0.55 -1.23,1.22l0 2.36c0,0.67 0.55,1.22 1.23,1.22l2.38 0c0.68,0 1.23,-0.55 1.23,-1.22l0 -2.36c0,-0.67 -0.55,-1.22 -1.23,-1.22l-2.38 0zm2.77 0.5c-0.19,0 -0.35,0.16 -0.35,0.35 0,0.19 0.16,0.35 0.35,0.35 0.19,0 0.35,-0.16 0.35,-0.35 0,-0.19 -0.16,-0.35 -0.35,-0.35zm-1.56 2.84c-0.52,0 -0.94,-0.42 -0.94,-0.93 0,-0.51 0.42,-0.93 0.94,-0.93 0.52,0 0.94,0.42 0.94,0.93 0,0.51 -0.42,0.93 -0.94,0.93zm0 -2.39c-0.81,0 -1.47,0.65 -1.47,1.46 0,0.8 0.66,1.46 1.47,1.46 0.81,0 1.47,-0.65 1.47,-1.46 0,-0.8 -0.66,-1.46 -1.47,-1.46zm1.17 4.42l-2.38 0c-0.99,0 -1.79,-0.8 -1.79,-1.78l0 -2.36c0,-0.98 0.8,-1.78 1.79,-1.78l2.38 0c0.99,0 1.79,0.8 1.79,1.78l0 2.36c0,0.98 -0.8,1.78 -1.79,1.78z"/>
 </g>
</svg>
