<?xml version="1.0" encoding="UTF-8"?>
<!DOCTYPE svg PUBLIC "-//W3C//DTD SVG 1.1//EN" "http://www.w3.org/Graphics/SVG/1.1/DTD/svg11.dtd">
<!-- Creator: CorelDRAW -->
<svg xmlns="http://www.w3.org/2000/svg" xml:space="preserve" width="1.524mm" height="1.1722mm" version="1.1" style="shape-rendering:geometricPrecision; text-rendering:geometricPrecision; image-rendering:optimizeQuality; fill-rule:evenodd; clip-rule:evenodd"
viewBox="0 0 1.19 0.91"
 xmlns:xlink="http://www.w3.org/1999/xlink"
 xmlns:xodm="http://www.corel.com/coreldraw/odm/2003">
 <defs>
  <style type="text/css">
   <![CDATA[
    .fil3 {fill:none}
    .fil4 {fill:#FEFEFE}
    .fil1 {fill:#96989A}
    .fil0 {fill:#F89933}
    .fil2 {fill:#FEFEFE}
   ]]>
  </style>
   <clipPath id="id0">
    <path d="M0.64 0.38c-0,-0.01 -0.01,-0.01 -0.01,-0.02 -0.01,-0.02 -0.02,-0.03 -0.04,-0.03 -0.04,-0.01 -0.09,0.01 -0.1,0.05 -0.02,0.08 0.05,0.14 0.08,0.2 0,0 0,0.01 0.01,0.01 0.01,0 0.01,-0 0.01,-0 0.04,-0.02 0.09,-0.03 0.12,-0.05 0.02,-0.01 0.04,-0.02 0.05,-0.04 0.03,-0.05 0.01,-0.1 -0.02,-0.12 -0.03,-0.02 -0.08,-0.02 -0.1,0z"/>
   </clipPath>
 </defs>
 <g id="Capa_x0020_1">
  <metadata id="CorelCorpID_0Corel-Layer"/>
  <path class="fil0" d="M1.12 0.82l-0.08 0 0 -0.15c0,-0.02 0.03,-0.01 0.08,-0.01 0.01,0 0.01,0 0.01,0.01l0 0.14c0,0.01 -0,0.01 -0.01,0.01zm0.06 -0.17l0 0.16c-0,0.02 -0,0.04 -0.01,0.05 -0.03,0.01 -0.07,0 -0.1,0 -0.1,-0 -0.21,0.04 -0.26,0.04l-0.21 0c-0.02,0 -0.05,-0.04 -0.07,-0.06l-0.12 -0.12c-0.05,-0.05 -0.05,-0.05 -0.05,-0.1 0,-0.02 0.02,-0.05 0.04,-0.06 0.08,-0.04 0.13,0.06 0.18,0.09 0.02,-0.02 0.03,-0.03 0.07,-0.03 0.19,-0 0.08,0 0.17,-0.04 0.02,-0.01 0.05,-0.02 0.08,-0.02 0.11,0 0.06,0.03 0.16,0.03 0.02,-0 0.06,-0 0.08,0 0.03,0 0.03,0.02 0.03,0.05zm-0.77 0c0,-0.02 -0,-0.04 0.03,-0.04 0.02,0 0.03,0.02 0.05,0.03 0.01,0.02 0.03,0.03 0.04,0.04 0.02,0.02 0.04,0.02 0.04,0.04 0.01,0.07 -0.05,0.06 0.24,0.06 0.04,0 0.04,-0.05 -0,-0.05l-0.18 0c0,-0.05 -0,-0.05 0.06,-0.05 0.17,0 0.09,-0 0.15,-0.04 0.07,-0.04 0.15,-0.02 0.15,0.01 0,0.19 0.01,0.17 -0.04,0.18 -0.02,0 -0.03,0.01 -0.05,0.01 -0.13,0.03 -0.14,0.02 -0.28,0.02 -0.01,0 -0.14,-0.13 -0.16,-0.15 -0.01,-0.01 -0.05,-0.04 -0.05,-0.06z"/>
  <path class="fil1" d="M0.07 0.09l0.08 0 0 0.16c0,0.02 -0.03,0.01 -0.08,0.01 -0.01,0 -0.01,-0 -0.01,-0.01l0 -0.14c0,-0.01 0,-0.01 0.01,-0.01zm-0.07 0.17l0 -0.17c0,-0.02 0,-0.04 0.01,-0.05 0.03,-0.01 0.07,-0 0.1,-0 0.1,0 0.21,-0.04 0.27,-0.04l0.21 0c0.02,0 0.06,0.04 0.07,0.06l0.12 0.12c0.05,0.05 0.05,0.05 0.05,0.11 0,0.03 -0.03,0.05 -0.04,0.06 -0.08,0.04 -0.13,-0.06 -0.18,-0.1 -0.03,0.02 -0.03,0.03 -0.07,0.03 -0.19,0 -0.08,-0 -0.17,0.04 -0.02,0.01 -0.05,0.02 -0.08,0.02 -0.12,0 -0.06,-0.03 -0.16,-0.03 -0.02,0 -0.06,0 -0.09,-0 -0.03,-0 -0.03,-0.02 -0.03,-0.05zm0.78 -0c0,0.02 0,0.04 -0.03,0.04 -0.02,0 -0.04,-0.02 -0.05,-0.03 -0.02,-0.02 -0.03,-0.03 -0.04,-0.04 -0.02,-0.02 -0.04,-0.02 -0.04,-0.04 -0.01,-0.07 0.05,-0.06 -0.25,-0.06 -0.04,0 -0.04,0.05 0,0.05l0.19 0c0,0.05 0,0.05 -0.06,0.05 -0.17,-0 -0.09,0 -0.15,0.04 -0.07,0.04 -0.16,0.02 -0.16,-0.01 0,-0.2 -0.01,-0.17 0.04,-0.18 0.02,-0 0.03,-0.01 0.05,-0.01 0.14,-0.03 0.14,-0.02 0.29,-0.02 0.01,0 0.14,0.13 0.16,0.15 0.01,0.01 0.05,0.04 0.05,0.06z"/>
  <path class="fil2" d="M0.45 0.42c0,0.03 0.01,0.05 0.03,0.07l0.01 0.01c0,0 0,0 0,0 0,0 0,0 0,0l0.01 0.01c0.01,0.01 0.02,0.02 0.03,0.03 0.01,0.01 0.01,0.01 0.02,0.02 0,0 0,0 0,0 0,-0 0.02,-0.01 0.02,-0.02 0,-0 0,-0 0.01,-0.01l-0.01 -0.01c-0.01,-0.02 -0.02,-0.04 -0.01,-0.07 0.01,-0.03 0.04,-0.04 0.07,-0.04 0.01,0 0.02,0.01 0.03,0.02 0,0 0,0 0,0.01l0 0.01c0.01,-0.01 0.01,-0.02 0.01,-0.03l0 -0c0,-0.02 -0.01,-0.03 -0.02,-0.04 -0.01,-0.01 -0.02,-0.01 -0.03,-0.01 -0.02,0 -0.03,0.01 -0.04,0.03 -0.01,0.01 -0.01,0.01 -0.02,0.01 -0.01,0 -0.01,-0.01 -0.02,-0.01 -0,-0 -0,-0 -0,-0 -0.01,-0.01 -0.03,-0.02 -0.04,-0.02 -0.02,0 -0.03,0 -0.04,0.01 -0.01,0.01 -0.01,0.02 -0.01,0.04z"/>
  <path class="fil0" d="M0.64 0.38c-0,-0.01 -0.01,-0.01 -0.01,-0.02 -0.01,-0.02 -0.02,-0.03 -0.04,-0.03 -0.04,-0.01 -0.09,0.01 -0.1,0.05 -0.02,0.08 0.05,0.14 0.08,0.2 0,0 0,0.01 0.01,0.01 0.01,0 0.01,-0 0.01,-0 0.04,-0.02 0.09,-0.03 0.12,-0.05 0.02,-0.01 0.04,-0.02 0.05,-0.04 0.03,-0.05 0.01,-0.1 -0.02,-0.12 -0.03,-0.02 -0.08,-0.02 -0.1,0z"/>
  <g style="clip-path:url(#id0)">
   <g id="_2594520797312">
    <polygon id="_1" class="fil1" points="0.56,0.62 0.78,0.6 0.78,0.36 0.65,0.36 "/>
   </g>
  </g>
  <path class="fil3" d="M0.64 0.38c-0,-0.01 -0.01,-0.01 -0.01,-0.02 -0.01,-0.02 -0.02,-0.03 -0.04,-0.03 -0.04,-0.01 -0.09,0.01 -0.1,0.05 -0.02,0.08 0.05,0.14 0.08,0.2 0,0 0,0.01 0.01,0.01 0.01,0 0.01,-0 0.01,-0 0.04,-0.02 0.09,-0.03 0.12,-0.05 0.02,-0.01 0.04,-0.02 0.05,-0.04 0.03,-0.05 0.01,-0.1 -0.02,-0.12 -0.03,-0.02 -0.08,-0.02 -0.1,0z"/>
  <path class="fil4" d="M0.59 0.55c0.03,-0.02 0.07,-0.02 0.1,-0.04 0.01,-0.01 0.03,-0.02 0.04,-0.03 0.01,-0.02 0.02,-0.05 -0.01,-0.07 -0.03,-0.02 -0.06,0 -0.09,0.01 -0.01,-0.02 -0.03,-0.05 -0.05,-0.06 -0.02,-0.01 -0.04,0 -0.05,0.03 -0.01,0.03 0,0.05 0.02,0.08 0.02,0.03 0.03,0.05 0.05,0.08z"/>
 </g>
</svg>
