<?xml version="1.0" encoding="UTF-8"?>
<!DOCTYPE svg PUBLIC "-//W3C//DTD SVG 1.1//EN" "http://www.w3.org/Graphics/SVG/1.1/DTD/svg11.dtd">
<!-- Creator: CorelDRAW -->
<svg xmlns="http://www.w3.org/2000/svg" xml:space="preserve" width="16.2202mm" height="12.475mm" version="1.1" style="shape-rendering:geometricPrecision; text-rendering:geometricPrecision; image-rendering:optimizeQuality; fill-rule:evenodd; clip-rule:evenodd"
viewBox="0 0 542.94 417.57"
 xmlns:xlink="http://www.w3.org/1999/xlink"
 xmlns:xodm="http://www.corel.com/coreldraw/odm/2003">
 <defs>
  <style type="text/css">
   <![CDATA[
    .fil3 {fill:none}
    .fil4 {fill:#FEFEFE}
    .fil1 {fill:#96989A}
    .fil0 {fill:#F89933}
    .fil2 {fill:#FEFEFE}
   ]]>
  </style>
   <clipPath id="id0">
    <path d="M292.26 174.53c-1.48,-2.58 -2.91,-5.27 -4.63,-7.69 -5.28,-7.43 -10.69,-12.87 -20.49,-15.68 -20.35,-5.82 -39.36,4.92 -45.34,24.45 -10.87,35.54 22.8,63.21 34.39,93.46 0.8,2.08 2.15,3.75 4.41,4.29 3.41,0.82 4.66,-0.41 6.78,-1.63 17.26,-9.9 39.58,-15.36 54.54,-23.69 9.24,-5.15 17.74,-10.48 23.45,-19.88 14.77,-24.29 6.23,-44.6 -8.69,-54.3 -15.3,-9.96 -37.27,-8.91 -44.44,0.66z"/>
   </clipPath>
 </defs>
 <g id="Capa_x0020_1">
  <metadata id="CorelCorpID_0Corel-Layer"/>
  <path class="fil0" d="M513.62 375.43l-34.82 0 0 -69.63c0,-8.75 12.27,-5.5 34.82,-5.5 4.22,0 5.5,1.28 5.5,5.5l0 64.14c0,4.22 -1.28,5.5 -5.5,5.5zm29.32 -76.96l0 75.35c-0.6,10.78 -1.71,19.52 -3.67,23.61 -12.46,2.9 -30.44,1.85 -45.81,1.83 -44.94,-0.06 -94.5,18.32 -119.11,18.32l-95.29 0c-10.55,0 -24.9,-18.49 -31.61,-25.2l-55.89 -55.89c-22.92,-22.91 -22.45,-22.01 -22.45,-47.19 0,-11.27 11.18,-22 19.46,-26.35 36.26,-19.03 60.07,28.61 81.32,42.84 11.42,-7.65 11.68,-14.62 32.9,-14.74 87.06,-0.5 35.63,0.92 77.04,-18.25 10.14,-4.69 21.88,-9.15 36.66,-9.15 52.2,0 28.78,12.94 73.3,12.83 11.11,-0.03 27.89,-0.98 38.35,0.13 12.64,1.35 14.79,8 14.79,21.86zm-350.01 1.83c0,-9.32 -0.61,-16.49 12.83,-16.49 9.73,0 15.99,9.57 21.53,15.12 6.86,6.86 12.42,12.37 19.23,19.26 9.73,9.84 16.38,10.76 17.74,18.91 5.27,31.55 -21.26,25.52 110.09,25.52 16.87,0 17.03,-23.82 -1.83,-23.82l-84.29 0c0,-20.59 -0.14,-24.02 27.47,-23.84 75.52,0.5 41.89,-1.51 69,-17.12 32.67,-18.81 70.28,-8.03 70.28,2.48 0,87.48 6.08,76.87 -17.55,81.4 -7.67,1.47 -15.19,3.03 -21.39,4.27 -60.78,12.16 -63.4,7.79 -129.65,7.79 -6.11,0 -62.34,-59.6 -71.01,-68.26 -4.58,-4.57 -22.45,-19.3 -22.45,-25.2z"/>
  <path class="fil1" d="M29.95 43.05l35.56 0 0 71.13c0,8.94 -12.53,5.62 -35.56,5.62 -4.31,0 -5.62,-1.3 -5.62,-5.62l0 -65.51c0,-4.31 1.3,-5.61 5.62,-5.61zm-29.95 78.62l0 -76.97c0.61,-11.01 1.74,-19.94 3.75,-24.11 12.72,-2.97 31.09,-1.89 46.8,-1.87 45.9,0.06 96.53,-18.72 121.67,-18.72l97.34 0c10.77,0 25.44,18.89 32.29,25.74l57.09 57.09c23.4,23.4 22.93,22.48 22.93,48.2 0,11.51 -11.42,22.48 -19.88,26.92 -37.04,19.44 -61.36,-29.23 -83.07,-43.76 -11.66,7.81 -11.93,14.94 -33.61,15.06 -88.93,0.51 -36.4,-0.94 -78.69,18.64 -10.35,4.79 -22.36,9.35 -37.45,9.35 -53.33,0 -29.4,-13.22 -74.87,-13.11 -11.35,0.03 -28.49,1.01 -39.18,-0.13 -12.91,-1.37 -15.11,-8.17 -15.11,-22.33zm357.52 -1.87c0,9.52 0.63,16.85 -13.1,16.85 -9.94,0 -16.34,-9.78 -22,-15.44 -7,-7.01 -12.68,-12.63 -19.64,-19.67 -9.94,-10.06 -16.74,-10.99 -18.13,-19.31 -5.39,-32.23 21.71,-26.07 -112.45,-26.07 -17.24,0 -17.4,24.33 1.87,24.33l86.11 0c0,21.03 0.14,24.54 -28.06,24.35 -77.14,-0.52 -42.79,1.55 -70.49,17.49 -33.38,19.21 -71.79,8.2 -71.79,-2.53 0,-89.36 -6.21,-78.52 17.92,-83.15 7.83,-1.5 15.52,-3.09 21.85,-4.36 62.09,-12.42 64.76,-7.96 132.44,-7.96 6.24,0 63.68,60.88 72.53,69.73 4.67,4.67 22.93,19.72 22.93,25.74z"/>
  <path class="fil2" d="M204.61 190.64c0,13.4 6.76,21.94 14.78,29.97l5.61 5.23c0.38,0.33 0.65,0.48 1.02,0.85 0.46,0.46 0.55,0.56 0.98,0.9l3.93 3.35c4.79,4.27 11.24,9.28 15.66,13.47 2.97,2.82 6.41,5.69 9.35,8.78 0.63,0.67 1.13,1.35 1.82,1.91 0.6,-1.09 6.87,-6.65 7.86,-7.74 0.82,-0.9 1.83,-1.56 2.73,-2.51l-2.87 -5.09c-5.4,-10.36 -9.3,-19.37 -5.55,-31.63 3.95,-12.9 16.5,-19.99 29.94,-16.15 6.47,1.85 10.05,5.45 13.53,10.35 0.57,0.8 1.07,1.59 1.57,2.48l1.49 2.59c2.33,-3.11 4.41,-10.81 4.41,-15.08l0 -1.86c0,-8.43 -4.03,-15.44 -9.79,-19.18 -4.5,-2.92 -9.32,-3.94 -14.94,-3.94 -7.49,0 -15.17,6.38 -20.15,11.44 -2.9,2.94 -4.12,6.43 -8.13,6.49 -3.75,0.06 -5.24,-2.94 -8.2,-6.26 -0.49,-0.54 -0.91,-0.98 -1.41,-1.48 -4.41,-4.42 -12.31,-10.2 -18.68,-10.2 -8.15,0 -13.62,2.04 -18.34,6.47 -3.63,3.41 -6.59,9.6 -6.59,16.82z"/>
  <path class="fil0" d="M292.26 174.53c-1.48,-2.58 -2.91,-5.27 -4.63,-7.69 -5.28,-7.43 -10.69,-12.87 -20.49,-15.68 -20.35,-5.82 -39.36,4.92 -45.34,24.45 -10.87,35.54 22.8,63.21 34.39,93.46 0.8,2.08 2.15,3.75 4.41,4.29 3.41,0.82 4.66,-0.41 6.78,-1.63 17.26,-9.9 39.58,-15.36 54.54,-23.69 9.24,-5.15 17.74,-10.48 23.45,-19.88 14.77,-24.29 6.23,-44.6 -8.69,-54.3 -15.3,-9.96 -37.27,-8.91 -44.44,0.66z"/>
  <g style="clip-path:url(#id0)">
   <g id="_2594517312352">
    <polygon id="_1" class="fil1" points="258.2,282.15 358.86,275.44 358.86,163.52 295.3,164.36 "/>
   </g>
  </g>
  <path class="fil3" d="M292.26 174.53c-1.48,-2.58 -2.91,-5.27 -4.63,-7.69 -5.28,-7.43 -10.69,-12.87 -20.49,-15.68 -20.35,-5.82 -39.36,4.92 -45.34,24.45 -10.87,35.54 22.8,63.21 34.39,93.46 0.8,2.08 2.15,3.75 4.41,4.29 3.41,0.82 4.66,-0.41 6.78,-1.63 17.26,-9.9 39.58,-15.36 54.54,-23.69 9.24,-5.15 17.74,-10.48 23.45,-19.88 14.77,-24.29 6.23,-44.6 -8.69,-54.3 -15.3,-9.96 -37.27,-8.91 -44.44,0.66z"/>
  <path class="fil4" d="M267.79 251.51c15.23,-7.01 31.4,-11.21 45.45,-19.04 6.16,-3.43 13.11,-7.36 16.89,-13.56 6.27,-10.31 8.2,-22.67 -3.17,-30.07 -14.9,-9.7 -28.04,0.29 -41.99,6.74 -5.55,-8.24 -12.92,-24.44 -22.73,-27.24 -10.62,-3.04 -20.11,1.9 -23.36,12.51 -3.81,12.44 1.21,23.97 7.26,34.74 6.89,12.26 15.2,23.5 21.65,35.92z"/>
 </g>
</svg>
