<?xml version="1.0" encoding="UTF-8"?>
<!DOCTYPE svg PUBLIC "-//W3C//DTD SVG 1.1//EN" "http://www.w3.org/Graphics/SVG/1.1/DTD/svg11.dtd">
<!-- Creator: CorelDRAW -->
<svg xmlns="http://www.w3.org/2000/svg" xml:space="preserve" width="71.6217mm" height="15.4794mm" version="1.1" style="shape-rendering:geometricPrecision; text-rendering:geometricPrecision; image-rendering:optimizeQuality; fill-rule:evenodd; clip-rule:evenodd"
viewBox="0 0 10585.85 2287.89"
 xmlns:xlink="http://www.w3.org/1999/xlink"
 xmlns:xodm="http://www.corel.com/coreldraw/odm/2003">
 <defs>
  <style type="text/css">
   <![CDATA[
    .fil8 {fill:none}
    .fil2 {fill:none;fill-rule:nonzero}
    .fil9 {fill:#FEFEFE}
    .fil4 {fill:#BDBFC1}
    .fil6 {fill:#96989A}
    .fil1 {fill:#FAA931}
    .fil5 {fill:#F89933}
    .fil7 {fill:#FEFEFE}
    .fil3 {fill:#96989A;fill-rule:nonzero}
    .fil0 {fill:#F89933;fill-rule:nonzero}
   ]]>
  </style>
   <clipPath id="id0" style="clip-rule:nonzero">
    <path d="M2860.58 449.76l154.99 0 0 197.24 -154.99 0 0 1190.41 -200.12 0 0 -1190.41 -143.41 0 0 -197.24 143.41 0 0 -449.76 200.12 0 0 449.76zm447.12 792.81l0 325.42c0,62.77 28.97,93.91 87.14,93.91 58.43,0 87.63,-31.14 87.63,-93.91l0 -186.85 200.12 0 0 186.85c0,194.09 -95.83,291.63 -287.76,292.12 -191.45,0 -287.3,-97.53 -287.3,-292.12l0 -848.81c0,-194.33 95.85,-291.38 287.3,-291.38 191.92,0 287.76,97.05 287.76,291.38l0 523.4 -374.9 0zm0 -197.97l174.78 0 0 -325.43c0,-62.28 -28.97,-93.68 -86.91,-94.15l-1.46 0c-57.44,0 -86.41,31.39 -86.41,94.15l0 325.43zm730.53 792.81l-200.15 0 0 -1837.42 200.15 0 0 1837.42zm730.73 -269.43c0,194.09 -95.82,291.63 -287.76,292.12 -191.43,0 -287.28,-97.53 -287.28,-292.12l0 -848.81c0,-194.33 95.85,-291.38 287.28,-291.38 191.94,0 287.76,97.05 287.76,291.38l0 848.81zm-200.12 -848.81c0,-62.28 -28.97,-93.68 -86.91,-94.15l-1.45 0c-57.45,0 -86.42,31.39 -86.42,94.15l0 848.81c0,62.77 28.97,93.91 87.14,93.91 58.43,0 87.63,-31.14 87.63,-93.91l0 -848.81zm555.75 848.81c0,62.77 29.21,93.91 87.87,93.91 57.94,0 86.91,-31.14 86.91,-93.91l0 -848.07c0,-62.79 -29.21,-94.16 -87.63,-94.16 -57.7,0 -86.67,31.14 -87.14,93.43l0 848.81zm374.9 0c0,194.09 -73.37,291.63 -219.91,292.12 -63.73,0 -115.4,-14.97 -154.99,-44.67l0 472.45 -200.14 0 0 -1567.97c0,-194.36 96.07,-291.64 288.01,-292.12 191.45,0 287.03,97.28 287.03,292.12l0 848.07zm155.49 -848.81c0,-194.33 95.83,-291.38 287.28,-291.38l2.66 0 0 197.23 -3.38 0c-57.45,0 -86.42,31.39 -86.42,94.15l0 1118.24 -200.14 0 0 -1118.24zm565.15 523.4l0 325.42c0,62.77 28.97,93.91 87.14,93.91 58.43,0 87.63,-31.14 87.63,-93.91l0 -186.85 200.12 0 0 186.85c0,194.09 -95.82,291.63 -287.76,292.12 -191.43,0 -287.28,-97.53 -287.28,-292.12l0 -848.81c0,-194.33 95.85,-291.38 287.28,-291.38 191.94,0 287.76,97.05 287.76,291.38l0 523.4 -374.9 0zm0 -197.97l174.78 0 0 -325.43c0,-62.28 -28.97,-93.68 -86.91,-94.15l-1.45 0c-57.45,0 -86.42,31.39 -86.42,94.15l0 325.43zm530.39 -325.43c0,-194.33 95.85,-291.38 287.28,-291.38 191.94,0 287.76,97.05 287.76,291.38l0 186.85 -200.12 0 0 -186.85c0,-62.28 -28.97,-93.68 -86.91,-94.15l-1.45 0c-57.45,0 -86.42,31.39 -86.42,94.15l0 126.02c0,61.57 62.52,137.37 187.58,226.94 124.8,89.07 187.32,196.03 187.32,320.35l0 175.52c0,194.58 -95.58,292.12 -287.03,292.12 -191.92,-0.49 -288.01,-98.02 -288.01,-292.12l0 -186.85 200.14 0 0 186.85c0,62.77 29.21,93.91 87.87,93.91 57.94,0 86.91,-31.14 86.91,-93.91l0 -158.36c0,-67.12 -62.52,-145.33 -187.34,-234.9 -125.06,-89.08 -187.58,-197.73 -187.58,-325.43l0 -130.13zm1010.57 -269.41l154.99 0 0 197.24 -154.99 0 0 1190.41 -200.12 0 0 -1190.41 -143.41 0 0 -197.24 143.41 0 0 -449.76 200.12 0 0 449.76zm822.02 1118.23c0,194.09 -95.83,291.63 -287.76,292.12 -191.45,0 -287.3,-97.53 -287.3,-292.12l0 -848.81c0,-194.33 95.85,-291.38 287.3,-291.38 191.92,0 287.76,97.05 287.76,291.38l0 848.81zm-200.12 -848.81c0,-62.28 -28.97,-93.68 -86.91,-94.15l-1.46 0c-57.44,0 -86.41,31.39 -86.41,94.15l0 848.81c0,62.77 28.97,93.91 87.14,93.91 58.43,0 87.63,-31.14 87.63,-93.91l0 -848.81z"/>
   </clipPath>
   <clipPath id="id1" style="clip-rule:nonzero">
    <path d="M8717.49 1684.21l153.21 0 0 153.21 -153.21 0 0 -153.21zm644.89 -26.4c0,129.39 -63.89,194.42 -191.85,194.74 -127.63,0 -191.51,-65.03 -191.51,-194.74l0 -565.86c0,-129.55 63.88,-194.26 191.51,-194.26 127.95,0 191.85,64.71 191.85,194.26l0 124.57 -133.42 0 0 -124.57c0,-41.53 -19.32,-62.46 -57.94,-62.77l-0.96 0c-38.31,0 -57.61,20.93 -57.61,62.77l0 565.86c0,41.83 19.3,62.61 58.09,62.61 38.96,0 58.43,-20.78 58.43,-62.61l0 -124.57 133.42 0 0 124.57zm487.01 0c0,129.39 -63.89,194.42 -191.85,194.74 -127.63,0 -191.51,-65.03 -191.51,-194.74l0 -565.86c0,-129.55 63.88,-194.26 191.51,-194.26 127.95,0 191.85,64.71 191.85,194.26l0 565.86zm-133.42 -565.86c0,-41.53 -19.32,-62.46 -57.94,-62.77l-0.96 0c-38.33,0 -57.61,20.93 -57.61,62.77l0 565.86c0,41.83 19.29,62.61 58.09,62.61 38.96,0 58.43,-20.78 58.43,-62.61l0 -565.86zm486.52 -9.34c-2.73,-35.25 -22.05,-53.12 -57.45,-53.43l-0.96 0c-38.33,0 -57.63,20.93 -57.63,62.77l0 745.47 -133.41 0 0 -745.47c0,-129.55 63.88,-194.26 191.51,-194.26 52.14,0 93.82,10.95 124.89,32.5 30.91,-21.55 72.26,-32.5 124.57,-32.5 127.78,0 191.83,64.71 191.83,194.26l0 745.47 -133.42 0 0 -745.47c0,-41.53 -19.3,-62.46 -57.94,-62.77l-0.96 0c-35.24,0 -54.24,17.85 -57.13,53.43l0 754.81 -133.91 0 0 -754.81z"/>
   </clipPath>
   <clipPath id="id2">
    <path d="M1290.51 833.52c-6.53,-11.38 -12.86,-23.25 -20.44,-33.94 -23.29,-32.8 -47.21,-56.84 -90.47,-69.22 -89.86,-25.69 -173.79,21.71 -200.18,107.97 -47.98,156.94 100.67,279.09 151.87,412.66 3.52,9.16 9.5,16.54 19.48,18.95 15.05,3.62 20.57,-1.82 29.94,-7.18 76.22,-43.73 174.79,-67.81 240.81,-104.58 40.81,-22.76 78.34,-46.28 103.55,-87.79 65.23,-107.27 27.51,-196.93 -38.35,-239.78 -67.55,-43.97 -164.56,-39.33 -196.21,2.91z"/>
   </clipPath>
 </defs>
 <g id="Capa_x0020_1">
  <metadata id="CorelCorpID_0Corel-Layer"/>
  <path class="fil0" d="M2860.58 449.76l154.99 0 0 197.24 -154.99 0 0 1190.41 -200.12 0 0 -1190.41 -143.41 0 0 -197.24 143.41 0 0 -449.76 200.12 0 0 449.76zm447.12 792.81l0 325.42c0,62.77 28.97,93.91 87.14,93.91 58.43,0 87.63,-31.14 87.63,-93.91l0 -186.85 200.12 0 0 186.85c0,194.09 -95.83,291.63 -287.76,292.12 -191.45,0 -287.3,-97.53 -287.3,-292.12l0 -848.81c0,-194.33 95.85,-291.38 287.3,-291.38 191.92,0 287.76,97.05 287.76,291.38l0 523.4 -374.9 0zm0 -197.97l174.78 0 0 -325.43c0,-62.28 -28.97,-93.68 -86.91,-94.15l-1.46 0c-57.44,0 -86.41,31.39 -86.41,94.15l0 325.43zm730.53 792.81l-200.15 0 0 -1837.42 200.15 0 0 1837.42zm730.73 -269.43c0,194.09 -95.82,291.63 -287.76,292.12 -191.43,0 -287.28,-97.53 -287.28,-292.12l0 -848.81c0,-194.33 95.85,-291.38 287.28,-291.38 191.94,0 287.76,97.05 287.76,291.38l0 848.81zm-200.12 -848.81c0,-62.28 -28.97,-93.68 -86.91,-94.15l-1.45 0c-57.45,0 -86.42,31.39 -86.42,94.15l0 848.81c0,62.77 28.97,93.91 87.14,93.91 58.43,0 87.63,-31.14 87.63,-93.91l0 -848.81zm555.75 848.81c0,62.77 29.21,93.91 87.87,93.91 57.94,0 86.91,-31.14 86.91,-93.91l0 -848.07c0,-62.79 -29.21,-94.16 -87.63,-94.16 -57.7,0 -86.67,31.14 -87.14,93.43l0 848.81zm374.9 0c0,194.09 -73.37,291.63 -219.91,292.12 -63.73,0 -115.4,-14.97 -154.99,-44.67l0 472.45 -200.14 0 0 -1567.97c0,-194.36 96.07,-291.64 288.01,-292.12 191.45,0 287.03,97.28 287.03,292.12l0 848.07zm155.49 -848.81c0,-194.33 95.83,-291.38 287.28,-291.38l2.66 0 0 197.23 -3.38 0c-57.45,0 -86.42,31.39 -86.42,94.15l0 1118.24 -200.14 0 0 -1118.24zm565.15 523.4l0 325.42c0,62.77 28.97,93.91 87.14,93.91 58.43,0 87.63,-31.14 87.63,-93.91l0 -186.85 200.12 0 0 186.85c0,194.09 -95.82,291.63 -287.76,292.12 -191.43,0 -287.28,-97.53 -287.28,-292.12l0 -848.81c0,-194.33 95.85,-291.38 287.28,-291.38 191.94,0 287.76,97.05 287.76,291.38l0 523.4 -374.9 0zm0 -197.97l174.78 0 0 -325.43c0,-62.28 -28.97,-93.68 -86.91,-94.15l-1.45 0c-57.45,0 -86.42,31.39 -86.42,94.15l0 325.43zm530.39 -325.43c0,-194.33 95.85,-291.38 287.28,-291.38 191.94,0 287.76,97.05 287.76,291.38l0 186.85 -200.12 0 0 -186.85c0,-62.28 -28.97,-93.68 -86.91,-94.15l-1.45 0c-57.45,0 -86.42,31.39 -86.42,94.15l0 126.02c0,61.57 62.52,137.37 187.58,226.94 124.8,89.07 187.32,196.03 187.32,320.35l0 175.52c0,194.58 -95.58,292.12 -287.03,292.12 -191.92,-0.49 -288.01,-98.02 -288.01,-292.12l0 -186.85 200.14 0 0 186.85c0,62.77 29.21,93.91 87.87,93.91 57.94,0 86.91,-31.14 86.91,-93.91l0 -158.36c0,-67.12 -62.52,-145.33 -187.34,-234.9 -125.06,-89.08 -187.58,-197.73 -187.58,-325.43l0 -130.13zm1010.57 -269.41l154.99 0 0 197.24 -154.99 0 0 1190.41 -200.12 0 0 -1190.41 -143.41 0 0 -197.24 143.41 0 0 -449.76 200.12 0 0 449.76zm822.02 1118.23c0,194.09 -95.83,291.63 -287.76,292.12 -191.45,0 -287.3,-97.53 -287.3,-292.12l0 -848.81c0,-194.33 95.85,-291.38 287.3,-291.38 191.92,0 287.76,97.05 287.76,291.38l0 848.81zm-200.12 -848.81c0,-62.28 -28.97,-93.68 -86.91,-94.15l-1.46 0c-57.44,0 -86.41,31.39 -86.41,94.15l0 848.81c0,62.77 28.97,93.91 87.14,93.91 58.43,0 87.63,-31.14 87.63,-93.91l0 -848.81z"/>
  <g style="clip-path:url(#id0)">
   <g id="_2594170617104">
    <rect class="fil1" x="2146.32" y="-239.4" width="8845.24" height="1513.62"/>
   </g>
  </g>
  <path class="fil2" d="M2860.58 449.76l154.99 0 0 197.24 -154.99 0 0 1190.41 -200.12 0 0 -1190.41 -143.41 0 0 -197.24 143.41 0 0 -449.76 200.12 0 0 449.76zm447.12 792.81l0 325.42c0,62.77 28.97,93.91 87.14,93.91 58.43,0 87.63,-31.14 87.63,-93.91l0 -186.85 200.12 0 0 186.85c0,194.09 -95.83,291.63 -287.76,292.12 -191.45,0 -287.3,-97.53 -287.3,-292.12l0 -848.81c0,-194.33 95.85,-291.38 287.3,-291.38 191.92,0 287.76,97.05 287.76,291.38l0 523.4 -374.9 0zm0 -197.97l174.78 0 0 -325.43c0,-62.28 -28.97,-93.68 -86.91,-94.15l-1.46 0c-57.44,0 -86.41,31.39 -86.41,94.15l0 325.43zm730.53 792.81l-200.15 0 0 -1837.42 200.15 0 0 1837.42zm730.73 -269.43c0,194.09 -95.82,291.63 -287.76,292.12 -191.43,0 -287.28,-97.53 -287.28,-292.12l0 -848.81c0,-194.33 95.85,-291.38 287.28,-291.38 191.94,0 287.76,97.05 287.76,291.38l0 848.81zm-200.12 -848.81c0,-62.28 -28.97,-93.68 -86.91,-94.15l-1.45 0c-57.45,0 -86.42,31.39 -86.42,94.15l0 848.81c0,62.77 28.97,93.91 87.14,93.91 58.43,0 87.63,-31.14 87.63,-93.91l0 -848.81zm555.75 848.81c0,62.77 29.21,93.91 87.87,93.91 57.94,0 86.91,-31.14 86.91,-93.91l0 -848.07c0,-62.79 -29.21,-94.16 -87.63,-94.16 -57.7,0 -86.67,31.14 -87.14,93.43l0 848.81zm374.9 0c0,194.09 -73.37,291.63 -219.91,292.12 -63.73,0 -115.4,-14.97 -154.99,-44.67l0 472.45 -200.14 0 0 -1567.97c0,-194.36 96.07,-291.64 288.01,-292.12 191.45,0 287.03,97.28 287.03,292.12l0 848.07zm155.49 -848.81c0,-194.33 95.83,-291.38 287.28,-291.38l2.66 0 0 197.23 -3.38 0c-57.45,0 -86.42,31.39 -86.42,94.15l0 1118.24 -200.14 0 0 -1118.24zm565.15 523.4l0 325.42c0,62.77 28.97,93.91 87.14,93.91 58.43,0 87.63,-31.14 87.63,-93.91l0 -186.85 200.12 0 0 186.85c0,194.09 -95.82,291.63 -287.76,292.12 -191.43,0 -287.28,-97.53 -287.28,-292.12l0 -848.81c0,-194.33 95.85,-291.38 287.28,-291.38 191.94,0 287.76,97.05 287.76,291.38l0 523.4 -374.9 0zm0 -197.97l174.78 0 0 -325.43c0,-62.28 -28.97,-93.68 -86.91,-94.15l-1.45 0c-57.45,0 -86.42,31.39 -86.42,94.15l0 325.43zm530.39 -325.43c0,-194.33 95.85,-291.38 287.28,-291.38 191.94,0 287.76,97.05 287.76,291.38l0 186.85 -200.12 0 0 -186.85c0,-62.28 -28.97,-93.68 -86.91,-94.15l-1.45 0c-57.45,0 -86.42,31.39 -86.42,94.15l0 126.02c0,61.57 62.52,137.37 187.58,226.94 124.8,89.07 187.32,196.03 187.32,320.35l0 175.52c0,194.58 -95.58,292.12 -287.03,292.12 -191.92,-0.49 -288.01,-98.02 -288.01,-292.12l0 -186.85 200.14 0 0 186.85c0,62.77 29.21,93.91 87.87,93.91 57.94,0 86.91,-31.14 86.91,-93.91l0 -158.36c0,-67.12 -62.52,-145.33 -187.34,-234.9 -125.06,-89.08 -187.58,-197.73 -187.58,-325.43l0 -130.13zm1010.57 -269.41l154.99 0 0 197.24 -154.99 0 0 1190.41 -200.12 0 0 -1190.41 -143.41 0 0 -197.24 143.41 0 0 -449.76 200.12 0 0 449.76zm822.02 1118.23c0,194.09 -95.83,291.63 -287.76,292.12 -191.45,0 -287.3,-97.53 -287.3,-292.12l0 -848.81c0,-194.33 95.85,-291.38 287.3,-291.38 191.92,0 287.76,97.05 287.76,291.38l0 848.81zm-200.12 -848.81c0,-62.28 -28.97,-93.68 -86.91,-94.15l-1.46 0c-57.44,0 -86.41,31.39 -86.41,94.15l0 848.81c0,62.77 28.97,93.91 87.14,93.91 58.43,0 87.63,-31.14 87.63,-93.91l0 -848.81z"/>
  <path class="fil3" d="M8717.49 1684.21l153.21 0 0 153.21 -153.21 0 0 -153.21zm644.89 -26.4c0,129.39 -63.89,194.42 -191.85,194.74 -127.63,0 -191.51,-65.03 -191.51,-194.74l0 -565.86c0,-129.55 63.88,-194.26 191.51,-194.26 127.95,0 191.85,64.71 191.85,194.26l0 124.57 -133.42 0 0 -124.57c0,-41.53 -19.32,-62.46 -57.94,-62.77l-0.96 0c-38.31,0 -57.61,20.93 -57.61,62.77l0 565.86c0,41.83 19.3,62.61 58.09,62.61 38.96,0 58.43,-20.78 58.43,-62.61l0 -124.57 133.42 0 0 124.57zm487.01 0c0,129.39 -63.89,194.42 -191.85,194.74 -127.63,0 -191.51,-65.03 -191.51,-194.74l0 -565.86c0,-129.55 63.88,-194.26 191.51,-194.26 127.95,0 191.85,64.71 191.85,194.26l0 565.86zm-133.42 -565.86c0,-41.53 -19.32,-62.46 -57.94,-62.77l-0.96 0c-38.33,0 -57.61,20.93 -57.61,62.77l0 565.86c0,41.83 19.29,62.61 58.09,62.61 38.96,0 58.43,-20.78 58.43,-62.61l0 -565.86zm486.52 -9.34c-2.73,-35.25 -22.05,-53.12 -57.45,-53.43l-0.96 0c-38.33,0 -57.63,20.93 -57.63,62.77l0 745.47 -133.41 0 0 -745.47c0,-129.55 63.88,-194.26 191.51,-194.26 52.14,0 93.82,10.95 124.89,32.5 30.91,-21.55 72.26,-32.5 124.57,-32.5 127.78,0 191.83,64.71 191.83,194.26l0 745.47 -133.42 0 0 -745.47c0,-41.53 -19.3,-62.46 -57.94,-62.77l-0.96 0c-35.24,0 -54.24,17.85 -57.13,53.43l0 754.81 -133.91 0 0 -754.81z"/>
  <g style="clip-path:url(#id1)">
   <g id="_2594170619984">
    <rect class="fil4" x="2146.32" y="-238.55" width="8845.24" height="1513.62"/>
   </g>
  </g>
  <path class="fil2" d="M8717.49 1684.21l153.21 0 0 153.21 -153.21 0 0 -153.21zm644.89 -26.4c0,129.39 -63.89,194.42 -191.85,194.74 -127.63,0 -191.51,-65.03 -191.51,-194.74l0 -565.86c0,-129.55 63.88,-194.26 191.51,-194.26 127.95,0 191.85,64.71 191.85,194.26l0 124.57 -133.42 0 0 -124.57c0,-41.53 -19.32,-62.46 -57.94,-62.77l-0.96 0c-38.31,0 -57.61,20.93 -57.61,62.77l0 565.86c0,41.83 19.3,62.61 58.09,62.61 38.96,0 58.43,-20.78 58.43,-62.61l0 -124.57 133.42 0 0 124.57zm487.01 0c0,129.39 -63.89,194.42 -191.85,194.74 -127.63,0 -191.51,-65.03 -191.51,-194.74l0 -565.86c0,-129.55 63.88,-194.26 191.51,-194.26 127.95,0 191.85,64.71 191.85,194.26l0 565.86zm-133.42 -565.86c0,-41.53 -19.32,-62.46 -57.94,-62.77l-0.96 0c-38.33,0 -57.61,20.93 -57.61,62.77l0 565.86c0,41.83 19.29,62.61 58.09,62.61 38.96,0 58.43,-20.78 58.43,-62.61l0 -565.86zm486.52 -9.34c-2.73,-35.25 -22.05,-53.12 -57.45,-53.43l-0.96 0c-38.33,0 -57.63,20.93 -57.63,62.77l0 745.47 -133.41 0 0 -745.47c0,-129.55 63.88,-194.26 191.51,-194.26 52.14,0 93.82,10.95 124.89,32.5 30.91,-21.55 72.26,-32.5 124.57,-32.5 127.78,0 191.83,64.71 191.83,194.26l0 745.47 -133.42 0 0 -745.47c0,-41.53 -19.3,-62.46 -57.94,-62.77l-0.96 0c-35.24,0 -54.24,17.85 -57.13,53.43l0 754.81 -133.91 0 0 -754.81z"/>
  <path class="fil5" d="M2267.92 1720.58l-153.74 0 0 -307.47c0,-38.65 54.17,-24.27 153.74,-24.27 18.64,0 24.27,5.63 24.27,24.27l0 283.2c0,18.64 -5.63,24.27 -24.27,24.27zm129.46 -339.84l0 332.72c-2.63,47.59 -7.54,86.18 -16.18,104.23 -55.01,12.81 -134.41,8.16 -202.28,8.08 -198.42,-0.25 -417.28,80.91 -525.94,80.91l-420.76 0c-46.57,0 -109.96,-81.65 -139.58,-111.25l-246.79 -246.79c-101.19,-101.17 -99.12,-97.19 -99.12,-208.36 0,-49.77 49.38,-97.15 85.95,-116.35 160.1,-84.03 265.25,126.34 359.07,189.17 50.42,-33.76 51.58,-64.57 145.27,-65.11 384.43,-2.2 157.32,4.05 340.18,-80.58 44.75,-20.71 96.63,-40.42 161.87,-40.42 230.51,0 127.08,57.16 323.64,56.65 49.06,-0.12 123.16,-4.35 169.35,0.58 55.81,5.94 65.31,35.31 65.31,96.51zm-1545.48 8.1c0,-41.16 -2.69,-72.82 56.65,-72.82 42.97,0 70.61,42.27 95.07,66.75 30.28,30.3 54.82,54.61 84.9,85.03 42.98,43.47 72.35,47.5 78.35,83.48 23.28,139.33 -93.87,112.67 486.11,112.67 74.51,0 75.2,-105.19 -8.1,-105.19l-372.21 0c0,-90.91 -0.61,-106.06 121.32,-105.25 333.47,2.22 184.96,-6.68 304.69,-75.6 144.27,-83.04 310.31,-35.46 310.31,10.94 0,386.28 26.84,339.44 -77.49,359.43 -33.85,6.49 -67.07,13.38 -94.45,18.84 -268.38,53.68 -279.94,34.39 -572.48,34.39 -26.96,0 -275.27,-263.15 -313.53,-301.41 -20.2,-20.19 -99.13,-85.22 -99.13,-111.25z"/>
  <path class="fil6" d="M132.25 252.95l157.04 0 0 314.06c0,39.48 -55.34,24.8 -157.04,24.8 -19.05,0 -24.8,-5.75 -24.8,-24.8l0 -289.28c0,-19.04 5.75,-24.79 24.8,-24.79zm-132.25 347.14l0 -339.87c2.69,-48.63 7.7,-88.05 16.54,-106.46 56.18,-13.1 137.29,-8.35 206.63,-8.26 202.7,0.25 426.23,-82.65 537.25,-82.65l429.79 0c47.58,0 112.33,83.39 142.57,113.65l252.11 252.09c103.34,103.34 101.24,99.28 101.24,212.82 0,50.84 -50.44,99.25 -87.79,118.85 -163.54,85.84 -270.95,-129.05 -366.8,-193.24 -51.49,34.48 -52.68,65.96 -148.39,66.51 -392.68,2.26 -160.71,-4.14 -347.48,82.31 -45.72,21.15 -98.72,41.3 -165.35,41.3 -235.48,0 -129.81,-58.38 -330.6,-57.88 -50.1,0.13 -125.81,4.45 -172.99,-0.58 -57.01,-6.06 -66.72,-36.08 -66.72,-98.58zm1578.68 -8.28c0,42.05 2.76,74.39 -57.85,74.39 -43.9,0 -72.14,-43.17 -97.12,-68.2 -30.92,-30.94 -55.99,-55.78 -86.72,-86.85 -43.9,-44.4 -73.9,-48.51 -80.03,-85.27 -23.78,-142.33 95.88,-115.09 -496.54,-115.09 -76.1,0 -76.83,107.45 8.26,107.45l380.21 0c0,92.86 0.62,108.34 -123.92,107.51 -340.64,-2.28 -188.94,6.83 -311.24,77.23 -147.37,84.81 -316.98,36.21 -316.98,-11.17 0,-394.59 -27.42,-346.73 79.15,-367.16 34.57,-6.62 68.52,-13.66 96.49,-19.24 274.14,-54.83 285.95,-35.13 584.78,-35.13 27.54,0 281.18,268.81 320.27,307.89 20.63,20.63 101.24,87.07 101.24,113.65z"/>
  <path class="fil7" d="M903.47 904.62c0,59.15 29.86,96.87 65.25,132.34l24.76 23.09c1.67,1.48 2.87,2.11 4.49,3.74 2.02,2.01 2.42,2.47 4.32,3.98l17.34 14.78c21.14,18.84 49.63,40.96 69.14,59.49 13.12,12.46 28.3,25.11 41.27,38.75 2.79,2.94 4.98,5.94 8.04,8.42 2.66,-4.83 30.33,-29.37 34.69,-34.16 3.61,-3.96 8.07,-6.87 12.08,-11.1l-12.67 -22.47c-23.86,-45.73 -41.06,-85.52 -24.52,-139.64 17.43,-56.96 72.85,-88.27 132.19,-71.3 28.57,8.16 44.37,24.05 59.74,45.72 2.53,3.55 4.73,7.04 6.95,10.97l6.56 11.44c10.29,-13.72 19.45,-47.74 19.45,-66.57l0 -8.23c0.01,-37.22 -17.8,-68.2 -43.23,-84.68 -19.86,-12.87 -41.15,-17.41 -65.96,-17.41 -33.06,0 -66.98,28.19 -88.96,50.52 -12.78,12.96 -18.21,28.38 -35.92,28.66 -16.55,0.27 -23.12,-12.98 -36.21,-27.62 -2.14,-2.39 -4.01,-4.33 -6.21,-6.53 -19.45,-19.5 -54.36,-45.02 -82.5,-45.02 -35.98,0 -60.16,9 -80.97,28.58 -16.02,15.06 -29.12,42.4 -29.12,74.26z"/>
  <path class="fil5" d="M1290.51 833.52c-6.53,-11.38 -12.86,-23.25 -20.44,-33.94 -23.29,-32.8 -47.21,-56.84 -90.47,-69.22 -89.86,-25.69 -173.79,21.71 -200.18,107.97 -47.98,156.94 100.67,279.09 151.87,412.66 3.52,9.16 9.5,16.54 19.48,18.95 15.05,3.62 20.57,-1.82 29.94,-7.18 76.22,-43.73 174.79,-67.81 240.81,-104.58 40.81,-22.76 78.34,-46.28 103.55,-87.79 65.23,-107.27 27.51,-196.93 -38.35,-239.78 -67.55,-43.97 -164.56,-39.33 -196.21,2.91z"/>
  <g style="clip-path:url(#id2)">
   <g id="_2594170621856">
    <polygon id="_1" class="fil6" points="1140.1,1308.71 1584.56,1279.07 1584.56,784.87 1303.94,788.6 "/>
   </g>
  </g>
  <path class="fil8" d="M1290.51 833.52c-6.53,-11.38 -12.86,-23.25 -20.44,-33.94 -23.29,-32.8 -47.21,-56.84 -90.47,-69.22 -89.86,-25.69 -173.79,21.71 -200.18,107.97 -47.98,156.94 100.67,279.09 151.87,412.66 3.52,9.16 9.5,16.54 19.48,18.95 15.05,3.62 20.57,-1.82 29.94,-7.18 76.22,-43.73 174.79,-67.81 240.81,-104.58 40.81,-22.76 78.34,-46.28 103.55,-87.79 65.23,-107.27 27.51,-196.93 -38.35,-239.78 -67.55,-43.97 -164.56,-39.33 -196.21,2.91z"/>
  <path class="fil9" d="M1182.46 1173.4c67.25,-30.95 138.65,-49.51 200.69,-84.07 27.18,-15.15 57.91,-32.5 74.57,-59.89 27.67,-45.52 36.21,-100.09 -14,-132.77 -65.79,-42.85 -123.83,1.27 -185.42,29.77 -24.52,-36.4 -57.05,-107.91 -100.37,-120.28 -46.88,-13.41 -88.81,8.41 -103.14,55.23 -16.81,54.92 5.35,105.86 32.07,153.42 30.42,54.13 67.12,103.76 95.6,158.59z"/>
 </g>
</svg>
