<?xml version="1.0" encoding="UTF-8"?>
<!DOCTYPE svg PUBLIC "-//W3C//DTD SVG 1.1//EN" "http://www.w3.org/Graphics/SVG/1.1/DTD/svg11.dtd">
<!-- Creator: CorelDRAW -->
<svg xmlns="http://www.w3.org/2000/svg" xml:space="preserve" width="1.6665mm" height="1.6675mm" version="1.1" style="shape-rendering:geometricPrecision; text-rendering:geometricPrecision; image-rendering:optimizeQuality; fill-rule:evenodd; clip-rule:evenodd"
viewBox="0 0 4.12 4.13"
 xmlns:xlink="http://www.w3.org/1999/xlink"
 xmlns:xodm="http://www.corel.com/coreldraw/odm/2003">
 <defs>
  <style type="text/css">
   <![CDATA[
    .fil0 {fill:#848688}
   ]]>
  </style>
 </defs>
 <g id="Capa_x0020_1">
  <metadata id="CorelCorpID_0Corel-Layer"/>
  <g id="_2594223133600">
   <path class="fil0" d="M0.47 3.81l-0.15 -0.15c0.03,-0.06 0.48,-0.49 0.57,-0.58 0.05,-0.05 0.14,-0.16 0.2,-0.19l0.15 0.15c-0.01,0.04 -0.34,0.35 -0.38,0.39 -0.06,0.06 -0.12,0.12 -0.19,0.19 -0.05,0.05 -0.14,0.16 -0.2,0.19zm0.91 -2.3c0,-0.69 0.57,-1.25 1.22,-1.25 0.24,0 0.35,0.03 0.55,0.11 0.04,0.02 0.06,0.03 0.1,0.05l0.09 0.06c0.12,0.09 0.11,0.08 0.2,0.18 0.34,0.35 0.43,0.93 0.22,1.37 -0.1,0.2 -0.23,0.38 -0.42,0.5 -0.87,0.58 -1.96,-0.06 -1.96,-1.02zm-0.26 -0.01c0,0.32 0.1,0.63 0.28,0.87 0.02,0.03 0.05,0.06 0.07,0.1l-0.22 0.23c-0.07,-0.05 -0.07,-0.11 -0.19,-0.11 -0.06,0 -0.23,0.2 -0.28,0.25l-0.67 0.67c-0.14,0.14 -0.16,0.16 -0.02,0.3l0.23 0.23c0.14,0.14 0.16,0.13 0.3,-0l0.53 -0.53c0,-0 0,-0 0,-0 0.05,-0.05 0.09,-0.09 0.14,-0.14 0.05,-0.05 0.09,-0.09 0.14,-0.14 0.04,-0.04 0.11,-0.09 0.11,-0.16 0,-0.09 -0.08,-0.11 -0.11,-0.17l0.22 -0.23c0.17,0.12 0.18,0.15 0.42,0.25 0.6,0.24 1.29,0.06 1.7,-0.43 0.03,-0.04 0.06,-0.07 0.08,-0.11 0.03,-0.03 0.05,-0.07 0.07,-0.11 0.07,-0.11 0.14,-0.28 0.16,-0.41 0,-0.02 0,-0.02 0.01,-0.03 0.03,-0.12 0.01,-0.03 0.02,-0.12 0.01,-0.1 0.02,-0.39 -0.01,-0.46 -0.04,-0.12 -0.04,-0.19 -0.11,-0.34 -0.06,-0.12 -0.1,-0.19 -0.17,-0.29l-0.14 -0.15c-0.28,-0.28 -0.64,-0.44 -1.06,-0.44 -0.82,0 -1.5,0.68 -1.5,1.5z"/>
   <path class="fil0" d="M1.71 1.63c0.26,0 0.02,-0.27 0.34,-0.63l0.06 -0.06c0.14,-0.12 0.29,-0.2 0.49,-0.2 0.21,-0 0.17,-0.26 0.02,-0.26 -0.47,0 -0.86,0.32 -0.98,0.73 -0.03,0.1 -0.11,0.42 0.07,0.42z"/>
  </g>
 </g>
</svg>
