<?xml version="1.0" encoding="UTF-8"?>
<!DOCTYPE svg PUBLIC "-//W3C//DTD SVG 1.1//EN" "http://www.w3.org/Graphics/SVG/1.1/DTD/svg11.dtd">
<!-- Creator: CorelDRAW -->
<svg xmlns="http://www.w3.org/2000/svg" xml:space="preserve" width="2.1705mm" height="1.7391mm" version="1.1" style="shape-rendering:geometricPrecision; text-rendering:geometricPrecision; image-rendering:optimizeQuality; fill-rule:evenodd; clip-rule:evenodd"
viewBox="0 0 18.82 15.08"
 xmlns:xlink="http://www.w3.org/1999/xlink"
 xmlns:xodm="http://www.corel.com/coreldraw/odm/2003">
 <defs>
  <style type="text/css">
   <![CDATA[
    .fil0 {fill:#96989A}
    .fil1 {fill:#FAA931}
   ]]>
  </style>
 </defs>
 <g id="Capa_x0020_1">
  <metadata id="CorelCorpID_0Corel-Layer"/>
  <g id="_2594517293776">
   <path class="fil0" d="M10.08 2.56c0,-0.56 0.34,-0.96 0.73,-1.14 0.46,-0.21 1,-0.09 1.37,0.28l5.11 5.12c0.45,0.66 0.22,1.22 -0.27,1.72l-4.62 4.62c-0.14,0.14 -0.23,0.26 -0.4,0.37 -0.71,0.49 -1.92,0.11 -1.92,-1.01 0,-0.38 0.2,-0.7 0.42,-0.9 0.01,-0.01 0.01,-0.01 0.02,-0.02 0.85,-0.81 1.99,-2 2.85,-2.86l1.18 -1.2 -1.16 -1.18c-0.77,-0.77 -2.12,-2.06 -2.8,-2.81l-0.15 -0.14c-0.17,-0.18 -0.36,-0.51 -0.36,-0.85zm-1.32 -0.04c0,1.33 0.87,1.92 1.71,2.76 0.19,0.19 2.1,2.07 2.21,2.23 -0.05,0.18 -1.8,1.85 -2.13,2.19l-0.08 0.07c-0.48,0.43 -0.72,0.74 -1.1,1.13 -0.37,0.37 -0.61,1.08 -0.61,1.66 0,1 0.6,1.84 1.46,2.27 0.66,0.32 1.38,0.31 2.06,0.04 0.67,-0.27 1.47,-1.21 2.04,-1.77l3.77 -3.77c0.19,-0.19 0.39,-0.47 0.51,-0.74 0.04,-0.08 0.05,-0.14 0.08,-0.21l0.05 -0.1c0.03,-0.08 0.02,-0.05 0.03,-0.15 0.06,-0.43 0.09,-0.86 -0.02,-1.28 -0.21,-0.81 -1.3,-1.73 -1.91,-2.34l-3.77 -3.77c-0.17,-0.17 -0.49,-0.4 -0.74,-0.51 -1,-0.42 -2.06,-0.24 -2.82,0.52 -0.4,0.4 -0.75,0.99 -0.75,1.77z"/>
   <path class="fil1" d="M1.32 2.56c0,-1.12 1.33,-1.63 2.08,-0.87l4.65 4.65c0.3,0.3 0.71,0.59 0.71,1.16 0,0.56 -0.22,0.75 -0.5,1.03l-3.85 3.85c-0.18,0.18 -1,1.03 -1.17,1.14 -0.74,0.51 -1.92,0.05 -1.92,-0.97 0,-0.69 0.55,-1.08 0.91,-1.44 0.41,-0.41 0.79,-0.78 1.19,-1.19 0.47,-0.47 1.32,-1.36 1.78,-1.77l0.14 -0.15c0.14,-0.15 0.35,-0.33 0.45,-0.47 -0.3,-0.45 -4.09,-3.93 -4.35,-4.48 -0.06,-0.12 -0.12,-0.34 -0.12,-0.5zm-1.32 -0.04c0,1.34 0.91,1.95 1.71,2.76l1.67 1.67c0.74,0.74 0.82,0.37 -0.53,1.72l-2.24 2.23c-0.58,0.6 -0.81,1.81 -0.39,2.65 0.54,1.09 1.61,1.73 2.8,1.48 0.91,-0.19 1.28,-0.67 1.88,-1.27l3.15 -3.15c0.43,-0.43 0.83,-0.84 1.26,-1.26 0.88,-0.87 1.01,-2.22 0.3,-3.25l-0.19 -0.25c-0.01,-0.01 -0.01,-0.01 -0.02,-0.02l-3.85 -3.84c-0.51,-0.51 -1.39,-1.51 -1.98,-1.75 -0.54,-0.22 -1.02,-0.29 -1.6,-0.16 -0.75,0.17 -1.43,0.72 -1.74,1.41 -0.13,0.28 -0.24,0.65 -0.24,1.04z"/>
  </g>
 </g>
</svg>
